<?xml version="1.0" encoding="UTF-8"?>
<svg width="673px" height="359px" viewBox="0 0 673 359" version="1.1" xmlns="http://www.w3.org/2000/svg" xmlns:xlink="http://www.w3.org/1999/xlink">
    <!-- Generator: Sketch 51.2 (57519) - http://www.bohemiancoding.com/sketch -->
    <title>Gold-logo</title>
    <desc>Created with Sketch.</desc>
    <defs>
        <linearGradient x1="-10.4787432%" y1="19.6986172%" x2="190.136082%" y2="119.087191%" id="linearGradient-1">
            <stop stop-color="#A2742A" offset="0%"></stop>
            <stop stop-color="#D5C05B" offset="50.71%"></stop>
            <stop stop-color="#826126" offset="100%"></stop>
        </linearGradient>
        <linearGradient x1="-124.120866%" y1="-39.2438586%" x2="197.64685%" y2="130.182196%" id="linearGradient-2">
            <stop stop-color="#A2742A" offset="0%"></stop>
            <stop stop-color="#D5C05B" offset="50.71%"></stop>
            <stop stop-color="#826126" offset="100%"></stop>
        </linearGradient>
        <linearGradient x1="-242.526257%" y1="-25.1678251%" x2="173.502797%" y2="81.4785631%" id="linearGradient-3">
            <stop stop-color="#A2742A" offset="0%"></stop>
            <stop stop-color="#D5C05B" offset="50.71%"></stop>
            <stop stop-color="#826126" offset="100%"></stop>
        </linearGradient>
        <linearGradient x1="-204.123852%" y1="-37.5512346%" x2="101.953455%" y2="67.8188272%" id="linearGradient-4">
            <stop stop-color="#A2742A" offset="0%"></stop>
            <stop stop-color="#D5C05B" offset="50.71%"></stop>
            <stop stop-color="#826126" offset="100%"></stop>
        </linearGradient>
        <linearGradient x1="-71.2685139%" y1="-22.4292793%" x2="957.990176%" y2="592.65045%" id="linearGradient-5">
            <stop stop-color="#A2742A" offset="0%"></stop>
            <stop stop-color="#D5C05B" offset="50.71%"></stop>
            <stop stop-color="#826126" offset="100%"></stop>
        </linearGradient>
        <linearGradient x1="-142.680916%" y1="-58.7404301%" x2="897.208397%" y2="528.648602%" id="linearGradient-6">
            <stop stop-color="#A2742A" offset="0%"></stop>
            <stop stop-color="#D5C05B" offset="50.71%"></stop>
            <stop stop-color="#826126" offset="100%"></stop>
        </linearGradient>
        <linearGradient x1="-663.65%" y1="-163.675906%" x2="970.9176%" y2="331.093841%" id="linearGradient-7">
            <stop stop-color="#A2742A" offset="0%"></stop>
            <stop stop-color="#D5C05B" offset="50.71%"></stop>
            <stop stop-color="#826126" offset="100%"></stop>
        </linearGradient>
        <linearGradient x1="-466.248855%" y1="-241.595914%" x2="573.579135%" y2="345.75871%" id="linearGradient-8">
            <stop stop-color="#A2742A" offset="0%"></stop>
            <stop stop-color="#D5C05B" offset="50.71%"></stop>
            <stop stop-color="#826126" offset="100%"></stop>
        </linearGradient>
        <linearGradient x1="-319.118006%" y1="-164.861024%" x2="663.121149%" y2="408.316772%" id="linearGradient-9">
            <stop stop-color="#A2742A" offset="0%"></stop>
            <stop stop-color="#D5C05B" offset="50.71%"></stop>
            <stop stop-color="#826126" offset="100%"></stop>
        </linearGradient>
        <linearGradient x1="-121.432351%" y1="-116.750111%" x2="488.761803%" y2="491.557016%" id="linearGradient-10">
            <stop stop-color="#A2742A" offset="0%"></stop>
            <stop stop-color="#D5C05B" offset="50.71%"></stop>
            <stop stop-color="#826126" offset="100%"></stop>
        </linearGradient>
        <linearGradient x1="-289.196316%" y1="14.3047619%" x2="2754.46895%" y2="336.385464%" id="linearGradient-11">
            <stop stop-color="#A2742A" offset="0%"></stop>
            <stop stop-color="#D5C05B" offset="50.71%"></stop>
            <stop stop-color="#826126" offset="100%"></stop>
        </linearGradient>
        <linearGradient x1="-382.636318%" y1="-10.1546584%" x2="2494.50995%" y2="388.952174%" id="linearGradient-12">
            <stop stop-color="#A2742A" offset="0%"></stop>
            <stop stop-color="#D5C05B" offset="50.71%"></stop>
            <stop stop-color="#826126" offset="100%"></stop>
        </linearGradient>
        <linearGradient x1="-322.185149%" y1="-2.97978723%" x2="1586.37195%" y2="270.444468%" id="linearGradient-13">
            <stop stop-color="#A2742A" offset="0%"></stop>
            <stop stop-color="#D5C05B" offset="50.71%"></stop>
            <stop stop-color="#826126" offset="100%"></stop>
        </linearGradient>
        <linearGradient x1="-621.718919%" y1="-50.4027668%" x2="1983.29775%" y2="336.632816%" id="linearGradient-14">
            <stop stop-color="#A2742A" offset="0%"></stop>
            <stop stop-color="#D5C05B" offset="50.71%"></stop>
            <stop stop-color="#826126" offset="100%"></stop>
        </linearGradient>
        <linearGradient x1="-583.441429%" y1="-68.4408408%" x2="1481.81607%" y2="317.45976%" id="linearGradient-15">
            <stop stop-color="#A2742A" offset="0%"></stop>
            <stop stop-color="#D5C05B" offset="50.71%"></stop>
            <stop stop-color="#826126" offset="100%"></stop>
        </linearGradient>
        <linearGradient x1="-386.744821%" y1="-96.0115502%" x2="765.213745%" y2="294.587842%" id="linearGradient-16">
            <stop stop-color="#A2742A" offset="0%"></stop>
            <stop stop-color="#D5C05B" offset="50.71%"></stop>
            <stop stop-color="#826126" offset="100%"></stop>
        </linearGradient>
        <linearGradient x1="-1002.11984%" y1="-124.555255%" x2="1339.18462%" y2="261.365165%" id="linearGradient-17">
            <stop stop-color="#A2742A" offset="0%"></stop>
            <stop stop-color="#D5C05B" offset="50.71%"></stop>
            <stop stop-color="#826126" offset="100%"></stop>
        </linearGradient>
        <linearGradient x1="-1448.91421%" y1="-108.367419%" x2="1594.95474%" y2="213.735088%" id="linearGradient-18">
            <stop stop-color="#A2742A" offset="0%"></stop>
            <stop stop-color="#D5C05B" offset="50.71%"></stop>
            <stop stop-color="#826126" offset="100%"></stop>
        </linearGradient>
        <linearGradient x1="-956.18932%" y1="-83.4902584%" x2="915.26343%" y2="171.989662%" id="linearGradient-19">
            <stop stop-color="#A2742A" offset="0%"></stop>
            <stop stop-color="#D5C05B" offset="50.71%"></stop>
            <stop stop-color="#826126" offset="100%"></stop>
        </linearGradient>
        <linearGradient x1="-2846.87703%" y1="-111.640173%" x2="2126.09754%" y2="165.914471%" id="linearGradient-20">
            <stop stop-color="#A2742A" offset="0%"></stop>
            <stop stop-color="#D5C05B" offset="50.71%"></stop>
            <stop stop-color="#826126" offset="100%"></stop>
        </linearGradient>
        <linearGradient x1="-1121.94984%" y1="-194.493884%" x2="749.45178%" y2="198.48104%" id="linearGradient-21">
            <stop stop-color="#A2742A" offset="0%"></stop>
            <stop stop-color="#D5C05B" offset="50.71%"></stop>
            <stop stop-color="#826126" offset="100%"></stop>
        </linearGradient>
        <linearGradient x1="-1129.82637%" y1="-119.39617%" x2="601.431549%" y2="125.943655%" id="linearGradient-22">
            <stop stop-color="#A2742A" offset="0%"></stop>
            <stop stop-color="#D5C05B" offset="50.71%"></stop>
            <stop stop-color="#826126" offset="100%"></stop>
        </linearGradient>
        <linearGradient x1="-1364.67314%" y1="-245.442202%" x2="506.751133%" y2="147.537615%" id="linearGradient-23">
            <stop stop-color="#A2742A" offset="0%"></stop>
            <stop stop-color="#D5C05B" offset="50.71%"></stop>
            <stop stop-color="#826126" offset="100%"></stop>
        </linearGradient>
        <linearGradient x1="-1846.55466%" y1="-263.75045%" x2="494.610931%" y2="122.147147%" id="linearGradient-24">
            <stop stop-color="#A2742A" offset="0%"></stop>
            <stop stop-color="#D5C05B" offset="50.71%"></stop>
            <stop stop-color="#826126" offset="100%"></stop>
        </linearGradient>
        <linearGradient x1="-1088.01685%" y1="-292.695152%" x2="211.497753%" y2="96.7215152%" id="linearGradient-25">
            <stop stop-color="#A2742A" offset="0%"></stop>
            <stop stop-color="#D5C05B" offset="50.71%"></stop>
            <stop stop-color="#826126" offset="100%"></stop>
        </linearGradient>
    </defs>
    <g id="Gold-logo" stroke="none" stroke-width="1" fill="none" fill-rule="evenodd">
        <g id="Try-Something-New" fill-rule="nonzero">
            <g id="Group">
                <g id="Shape">
                    <path d="M5.1,329 C15.8,338.1 18.7,339.7 28.1,339.7 C72.9,339.7 110.5,291 132.9,208.7 C122.8,219.4 100.5,234.6 89.1,239.2 C74.5,236.6 63.1,218.4 63.1,198 C63.1,147.7 122.8,83.5 168.8,83.5 C183.7,83.5 190.9,89 194.1,104.3 C191.8,103 188.3,102.4 185,102.4 C153.9,102.4 89,182.2 89,222.1 C89,225 89.7,225.3 90.3,225.3 C97.8,225.3 119.5,206.8 135.7,188.6 C154.2,167.8 170.4,140.3 179.5,116.3 C191.2,117 201.2,120.8 204.5,124.1 C189.9,157.8 181.8,179.6 175.3,197.1 C152.3,259.4 136.4,298.6 105.2,333 C90.3,349.5 66.9,358.3 51.4,358.3 C30.3,358.3 7,347.9 0.8,335.9 C0.9,333.2 2.8,331 5.1,329 Z" fill="url(#linearGradient-1)"></path>
                    <path d="M207.8,205 C207.8,171 229.7,130.1 259.6,108.1 C271,99.5 282.5,95.1 292.3,95.1 C299,98.6 306,106.5 312.3,117.6 C314.2,117.6 316.1,117.3 318,117.3 C329.4,117.3 334.8,126.8 334.8,147.1 C334.8,200.1 298.3,245.5 247.5,256.3 C223.3,253.9 207.8,233.5 207.8,205 Z M237.9,220.8 C237.9,231 242,242.1 246.2,243.3 C284,235 311.6,194.4 311.6,144.8 C311.6,134 310.3,128 307.5,123.5 C289.1,128.9 274.2,142.6 263.7,156.2 C249.1,175.7 237.9,204 237.9,220.8 Z" fill="url(#linearGradient-2)"></path>
                    <path d="M364.4,135 C381.5,69.7 397.8,29.8 414.9,4.3 C424.1,5.1 444.6,14.5 448.1,19 C422.1,56.4 404.6,92.5 390.9,145.8 C379.3,191.2 374.4,228.7 376.6,252.3 C377.2,258.8 377.2,259.1 377.7,260.4 C372.6,260.3 368.1,258.5 366.8,256 C365.8,254.1 361.1,250 358.4,248.6 C354.8,246.7 351.2,236.2 350.1,224.1 C348.7,207.9 353.8,175.8 364.4,135 Z" fill="url(#linearGradient-3)"></path>
                    <path d="M513.1,121.5 C511.7,89.9 510.1,67.4 484.5,19.5 C487.7,12.3 503.3,1.2 513.5,0.1 C534.3,25.9 544.9,79.6 542,120.5 C537.7,182.4 488.6,255.3 448.2,259.3 C421.1,254.5 407.4,238.6 409.1,213.4 C411.9,172.5 456,112.1 486.7,106.8 C494.5,107.4 505.6,113.5 513.1,121.5 Z M512.8,135.4 C513.3,128.6 513.3,128.3 513.1,126.8 C483.8,137 436.7,198.6 434.6,229.5 C433.9,239.6 438,245.2 446.8,247.3 C475.2,239.4 509.6,181.7 512.8,135.4 Z" fill="url(#linearGradient-4)"></path>
                </g>
                <g transform="translate(107.000000, 1.000000)" id="Shape">
                    <path d="M39.4,17.7 L13.8,47.7 C19.3,47.7 29.9,47.7 36,47.5 C35.1,50.2 34.7,52.3 34.1,55.4 C28.6,55.1 24.3,54.9 17.7,54.9 C11.4,54.9 6.5,55.1 1,55.4 L0.9,50.2 L27.3,18.5 C19.3,18.5 14,18.6 7.1,18.7 C7.7,16.2 8.1,13.9 8.5,11 C14.5,11.2 16.7,11.3 24,11.3 C31,11.3 34.7,11.2 40.6,11 L39.4,17.7 Z" fill="url(#linearGradient-5)"></path>
                    <path d="M57.3,56.7 C45.9,56.7 40.8,48.5 40.8,37.9 C40.8,23.1 50.7,10.2 63.6,10.2 C75,10.2 80.1,18.4 80.1,29 C80.1,43.9 70.1,56.7 57.3,56.7 Z M58.4,49.1 C66,49.1 71.4,40.5 71.4,29.7 C71.4,21.7 68.5,17.7 62.3,17.7 C54.7,17.7 49.3,26.3 49.3,37.1 C49.3,45.2 52.3,49.1 58.4,49.1 Z" fill="url(#linearGradient-6)"></path>
                    <path d="M218.5,52.5 C216.2,54 211.6,56.1 206.9,56.1 C200.6,56.1 199.1,52.1 200.3,43.9 L204,18.5 L199,18.5 L200.6,11.2 L205.3,11.2 L206.7,4.7 L214.9,0.9 L213.3,11.2 L224,11.2 L222.7,18.5 L212.3,18.5 L208.8,42.6 C208.1,47 208.5,48.6 211.7,48.6 C214.1,48.6 217.7,47.1 219.8,45.9 L218.5,52.5 Z" fill="url(#linearGradient-7)"></path>
                    <path d="M241.3,56.7 C229.9,56.7 224.8,48.5 224.8,37.9 C224.8,23.1 234.7,10.2 247.6,10.2 C259,10.2 264.1,18.4 264.1,29 C264.1,43.9 254.2,56.7 241.3,56.7 Z M242.5,49.1 C250.1,49.1 255.5,40.5 255.5,29.7 C255.5,21.7 252.6,17.7 246.4,17.7 C238.8,17.7 233.4,26.3 233.4,37.1 C233.4,45.2 236.3,49.1 242.5,49.1 Z" fill="url(#linearGradient-8)"></path>
                    <path d="M152.4,45.6 C152.1,41.1 153.4,37.4 156.1,34.5 C159.6,30.7 164.9,28.3 171.6,27.8 C177.7,27.4 181.1,28 185.6,28.9 L185.8,27.9 C186.1,26.7 186.2,25.1 186.1,23.9 C185.7,18.6 181.6,15.8 173.5,16.4 C168.7,16.8 164.5,18 160.5,19.8 L158.7,13.4 C163.2,11.3 168.2,9.9 174.3,9.4 C186.2,8.5 193.2,13.2 193.9,22 C194.1,24 193.8,26.2 193.3,28.4 L190.3,55.6 L181.7,55.5 L183,47.9 C179.1,52.9 175,56.4 167.9,56.9 C160.1,57.4 153,53.4 152.4,45.6 Z M184,36.9 L184.6,34 C180.7,33.3 178,32.8 172.6,33.2 C168.1,33.5 164.9,35 162.7,37.5 C161,39.4 160.3,41.6 160.5,44.1 C160.8,48.5 164.6,51.1 170.2,50.7 C179.6,50 182.5,44.5 184,36.9 Z" fill="url(#linearGradient-9)"></path>
                    <path d="M141.2,9.8 C134.5,9.8 128.4,14.7 123,23.7 C124.1,16 122.6,9.8 114.6,9.8 C107.9,9.8 101.9,14.7 96.4,23.7 C97.4,17.7 96.9,11.8 96.5,10.3 C93.8,10.8 91.6,11.1 88.4,11.1 C88.6,15.6 88.3,21.6 87.5,27.2 L85.8,38.5 C84.9,44.1 84,50.5 83.1,54.6 L92.1,54.6 C92.2,52.1 92.8,48.3 93.3,44.9 L94.9,34.8 C97.2,28.1 104,17.5 111.1,17.5 C115.4,17.5 115,21.4 113.3,32.8 L112.5,38.6 C111.6,44.2 110.7,50.6 109.8,54.7 L118.8,54.7 C118.9,52.2 119.5,48.4 120,45 L121.6,34.9 C124,28.2 130.7,17.6 137.9,17.6 C142.1,17.6 142,21.3 141,27.3 L139.7,36.1 L139.2,39.9 C138.4,45.5 137.4,50.6 136.5,54.6 L145.5,54.6 C145.6,52.1 146.2,48.6 146.7,45.2 L147.6,38.9 L149.8,25.5 C150.8,15.9 149.3,9.8 141.2,9.8 Z" fill="url(#linearGradient-10)"></path>
                </g>
            </g>
            <g id="Group" transform="translate(177.000000, 292.000000)">
                <path d="M15.9,48.3 C14.2,49.4 11.1,50.9 7.9,50.9 C3.8,50.9 2.6,48.3 3.4,42.8 L6.4,22.7 L0.7,22.7 L2.8,18.7 L7,18.7 L8.4,12.2 L12.6,11 L11.4,18.7 L19.7,18.7 C19.6,18.8 18.9,22.5 18.9,22.7 L11,22.7 L8.2,42.2 C7.6,45.4 8.1,46.7 10.5,46.7 C12.4,46.7 15,45.5 16.8,44.4 L15.9,48.3 Z" id="Shape" fill="url(#linearGradient-11)"></path>
                <path d="M42.7,23.3 C42.4,23.2 42.2,23.2 41.9,23.2 C37,23.2 32.2,29.7 30.1,36.1 L29,43.1 C28.7,45.6 28.2,48.2 28.1,50.2 L23.1,50.2 C23.7,47.2 24.5,42.5 25,38.5 L26.2,30.6 C26.8,26.5 27,22.5 27,18.9 C28.7,18.8 29.9,18.7 31.5,18.4 C31.9,20.7 31.8,24.8 31.1,29.1 C34.8,22.2 37.9,18.4 43.2,18 L42.7,23.3 Z" id="Shape" fill="url(#linearGradient-12)"></path>
                <path d="M53.7,55.3 C52.8,57 49.7,62.5 48.7,64.8 C47,64.8 44.8,64.9 43.4,65 L52.8,48.1 L51.3,41.6 L48.4,29.8 C47.2,24.8 46.5,22 45.5,18.8 L50.3,18 L56,42.7 L61.6,31.8 C63.5,28.1 66.5,22.2 68.4,18.4 C70.3,18.5 72.1,18.4 73.7,18.3 L53.7,55.3 Z" id="Shape" fill="url(#linearGradient-13)"></path>
                <path d="M87.2,47.9 L88.1,43.1 C90.4,45 94,47.2 97.7,47.2 C101.2,47.2 103.4,44.7 103.4,42 C103.4,36.3 91,34.8 91,27.5 C91,22.1 95.6,18 101.3,18 C104.8,18 107.4,19.1 109.4,20.4 L107.6,24.4 C105.7,23.1 103.5,22.1 101.1,22.1 C97.9,22.1 95.5,24 95.5,26.9 C95.5,31.8 107.8,33.5 107.8,41.1 C107.8,46.5 103.9,51.2 97,51.2 C93.5,51.3 89.7,49.8 87.2,47.9 Z" id="Shape" fill="url(#linearGradient-14)"></path>
                <path d="M125.6,51.3 C117.5,51.3 113.9,45.4 113.9,38.1 C113.9,27.4 121.1,18 130.2,18 C138.3,18 141.9,23.9 141.9,31.2 C141.9,41.8 134.7,51.3 125.6,51.3 Z M126.1,47.1 C132.5,47.1 137.2,39.6 137.2,31.7 C137.2,25.7 134.8,22.1 129.6,22.1 C123.2,22.1 118.6,29.6 118.6,37.5 C118.6,43.5 120.9,47.1 126.1,47.1 Z" id="Shape" fill="url(#linearGradient-15)"></path>
                <path d="M192.3,43.3 C191.9,46 192.1,46.8 193.7,46.8 C194.8,46.8 195.7,46.5 196.9,45.8 L196.3,49.2 C194.9,50 193,50.6 191.3,50.6 C187.9,50.6 186.6,49 187.4,43.6 L189.5,29.7 C190.2,25 190.2,21.9 186.6,21.9 C180.9,21.9 174.9,30.7 173.6,35.4 L172.5,42.8 C172.1,45.3 171.7,47.9 171.6,49.9 L166.6,49.9 C167.2,46.9 167.9,42.2 168.5,38.2 L169.3,32.4 C170.3,25.2 170.5,21.9 166.8,21.9 C161.1,21.9 155.2,30.7 153.8,35.4 L152.6,42.8 C152.3,45.3 151.8,47.9 151.7,49.9 L146.7,49.9 C147.3,46.9 148.1,42.2 148.6,38.2 L149.8,30.3 C150.4,26.2 150.7,21.9 150.6,18.6 C152.3,18.5 153.5,18.4 155.1,18.1 C155.4,19.5 155.5,24 154.8,28.5 C158.9,21.7 163.6,17.7 168.7,17.7 C174.3,17.7 175.6,21.9 174.5,28.5 C178.6,21.7 183.4,17.7 188.4,17.7 C194.3,17.7 195.2,22.2 194.3,28.8 L192.3,43.3 Z" id="Shape" fill="url(#linearGradient-16)"></path>
                <path d="M202.2,38.3 C202.2,28.2 209.6,18 219,18 C224.2,18 226.9,21.4 226.9,24.8 C226.9,31.1 221.1,35.7 207,38.2 C207,43.4 209.8,47.2 214.4,47.2 C217.4,47.2 220,46.2 225.4,42.4 L224.4,47 C221.2,49.6 216.9,51.3 213.6,51.3 C206.1,51.3 202.2,45.8 202.2,38.3 Z M207.1,35 C218.6,32.7 222.5,29.3 222.5,25.3 C222.5,23.4 221.1,21.9 218.2,21.9 C212.8,21.9 208.2,27.8 207.1,35 Z" id="Shape" fill="url(#linearGradient-17)"></path>
                <path d="M247.1,48.3 C245.4,49.4 242.3,50.9 239.1,50.9 C235,50.9 233.8,48.3 234.6,42.8 L237.6,22.7 L231.9,22.7 L234,18.7 L238.2,18.7 L239.6,12.2 L243.8,11 L242.6,18.7 L250.9,18.7 C250.8,18.8 250.1,22.5 250.1,22.7 L242,22.7 L239.2,42.2 C238.6,45.4 239.1,46.7 241.5,46.7 C243.4,46.7 246,45.5 247.8,44.4 L247.1,48.3 Z" id="Shape" fill="url(#linearGradient-18)"></path>
                <path d="M280.4,43.3 C280,46 280.2,46.8 281.9,46.8 C283,46.8 283.8,46.5 285.1,45.8 L284.5,49.2 C283.1,50 281.2,50.6 279.5,50.6 C276.1,50.6 274.8,49 275.7,43.6 L277.8,29.7 C278.5,25 278.5,21.9 274.8,21.9 C268.9,21.9 262.7,30.7 261.3,35.4 L260.1,42.8 C259.8,45.3 259.3,47.9 259.2,49.9 L254.2,49.9 C254.8,46.9 255.6,42.2 256.1,38.2 L259.8,12.8 C260.8,5.8 261,4 261.4,0.9 C263.3,0.8 264.8,0.6 266.4,0.3 C266.1,1.5 265.6,4.4 264.7,10.5 C264.7,10.5 262.4,26.8 262.1,28.5 C266.4,21.7 271.3,17.7 276.4,17.7 C282.3,17.7 283.3,22.2 282.3,28.8 L280.4,43.3 Z" id="Shape" fill="url(#linearGradient-19)"></path>
                <path d="M293.5,30.4 C294.4,24.3 294.7,21.9 295,18.9 C296.9,18.8 298.4,18.6 300,18.3 C299.6,20.1 299.2,22.5 298.4,28.2 L296.1,43.2 C295.7,45.9 296,46.7 297.6,46.7 C298.7,46.7 299.5,46.4 300.8,45.7 L300.2,49.1 C298.7,49.9 296.9,50.5 295.2,50.5 C291.8,50.5 290.5,48.9 291.3,43.5 L293.5,30.4 Z M298.8,10.9 C297,10.9 296,9.7 296,8.2 C296,6.1 297.7,4.2 299.9,4.2 C301.6,4.2 302.7,5.5 302.7,7 C302.7,9.1 301,10.9 298.8,10.9 Z" id="Shape" fill="url(#linearGradient-20)"></path>
                <path d="M329.9,30 C330.6,25.3 330.6,22.2 326.9,22.2 C321,22.2 314.8,31 313.4,35.7 L312.2,43.1 C311.9,45.6 311.4,48.2 311.3,50.2 L306.3,50.2 C306.9,47.2 307.7,42.5 308.2,38.5 L309.4,30.6 C310,26.5 310.3,22.2 310.2,18.9 C311.9,18.8 313.1,18.7 314.7,18.4 C315,19.8 315.1,24.3 314.4,28.8 C318.7,22 323.7,18 328.7,18 C334.6,18 335.7,22.5 334.6,29.1 L332.5,43.4 C332.1,46.1 332.3,46.9 334,46.9 C335.1,46.9 335.9,46.6 337.2,45.9 L336.6,49.3 C335.2,50.1 333.4,50.7 331.6,50.7 C328.2,50.7 326.9,49.1 327.8,43.7 L329.9,30 Z" id="Shape" fill="url(#linearGradient-21)"></path>
                <path d="M348.3,48.4 C346,47.4 344.6,46.2 344.6,44.5 C344.6,42.5 346.5,40.8 348.7,39.7 C345.5,38.2 343.7,35.1 343.7,31.5 C343.7,24.1 349.1,18.1 356.7,18.1 C358.6,18.1 360.1,18.5 361.5,19.1 C363,14.8 366.5,12.9 371.2,13.4 L370.4,17.5 C367,17.1 365,17.9 364,20.7 C365.8,22.5 366.6,25 366.6,27.3 C366.6,34.7 361.2,40.7 353.6,40.7 C352.9,40.7 352.3,40.7 351.7,40.6 C350.1,41.6 349.2,42.7 349.2,43.7 C349.2,45.1 352.1,45.8 356.2,47 C362.2,48.7 366.9,50.5 366.9,55.2 C366.9,61.3 359.9,65.7 351.6,65.7 C342.2,65.7 337.8,61.4 337.8,57.6 C337.7,52.9 341.9,50 348.3,48.4 Z M352.5,49.9 C345.9,51 342.5,53.9 342.5,56.8 C342.5,59.3 345.3,62 352.2,62 C358,62 362.4,59.2 362.4,55.8 C362.4,52.9 358.8,51.6 353.7,50.2 L352.5,49.9 Z M348.1,30.9 C348.1,34.6 350.2,37.1 353.9,37.2 C358.6,37.2 362,32.7 362,27.9 C362,24.3 360,21.6 356.3,21.6 C351.5,21.6 348.1,26.2 348.1,30.9 Z" id="Shape" fill="url(#linearGradient-22)"></path>
                <path d="M408.6,30 C409.3,25.3 409.3,22.2 405.6,22.2 C399.7,22.2 393.5,31 392.1,35.7 L390.9,43.1 C390.6,45.6 390.1,48.2 390,50.2 L385,50.2 C385.6,47.2 386.4,42.5 386.9,38.5 L388.1,30.6 C388.7,26.5 389,22.2 388.9,18.9 C390.6,18.8 391.8,18.7 393.4,18.4 C393.7,19.8 393.8,24.3 393.1,28.8 C397.4,22 402.4,18 407.4,18 C413.3,18 414.4,22.5 413.3,29.1 L411.2,43.4 C410.8,46.1 411,46.9 412.7,46.9 C413.8,46.9 414.6,46.6 415.9,45.9 L415.3,49.3 C413.9,50.1 412.1,50.7 410.3,50.7 C406.9,50.7 405.6,49.1 406.5,43.7 L408.6,30 Z" id="Shape" fill="url(#linearGradient-23)"></path>
                <path d="M421.1,38.3 C421.1,28.2 428.5,18 437.9,18 C443.1,18 445.8,21.4 445.8,24.8 C445.8,31.1 440,35.7 425.9,38.2 C425.9,43.4 428.7,47.2 433.3,47.2 C436.3,47.2 438.9,46.2 444.3,42.4 L443.3,47 C440.1,49.6 435.8,51.3 432.5,51.3 C425,51.3 421.1,45.8 421.1,38.3 Z M426,35 C437.5,32.7 441.4,29.3 441.4,25.3 C441.4,23.4 440,21.9 437.1,21.9 C431.7,21.9 427.1,27.8 426,35 Z" id="Shape" fill="url(#linearGradient-24)"></path>
                <path d="M480,43 L484.7,32.2 C486,29.2 489.2,22.2 490.6,18.4 C492.5,18.4 494,18.3 495.6,18.2 L480.2,50.7 L477,51 L474,34.7 C473.9,33.8 472.4,26.7 472.3,26.2 L461.1,50.7 L457.9,51 C457.6,48.8 456.5,43.6 456,40.8 L453.6,29.7 C453,27 451.7,20.7 451.1,18.7 L455.9,18 L460.6,42.9 L465.4,32.1 C466.8,29 470,22.2 471.7,18.4 L475.1,18.1 L480,43 Z" id="Shape" fill="url(#linearGradient-25)"></path>
            </g>
        </g>
    </g>
</svg>